# xmcd
#
# Track frame offsets: 
#        150
#        14778
#        31790
#        47963
#        66321
#        86767
#        102164
#        119327
#        141064
#        162679
#        205316
#        221777
#        243134
#
# Disc length: 3393 seconds
#
# Revision: 0
# Processed by: cddbd v1.5.2PL0 Copyright (c) Steve Scherf et al.
# Submitted via: ExactAudioCopy v0.99pb3
#
DISCID=c20d3f0d
DTITLE=Lucerne Blues Festival - Part 1
DYEAR=2007
DGENRE=Blues
TTITLE0=Janiva Magness - A man size job
TTITLE1=Big Pete Pearson and The Rhythm Room All-Stars - My baby is a jo
TTITLE1=ckey
TTITLE2=Willie Walker and The Butanes - Exactly like me
TTITLE3=Paul Oscher - Sugar Mama
TTITLE4=Zac Harmon - A hole in my heart
TTITLE5=PhilipFrankhauser-&-Band with SonnyRhodes - A tribute to Johnn
TTITLE5=y 'Clyde' Copeland - Love Song
TTITLE6=SonnyRhodes-PhilipFrankhauser-&-Band with SonnyRhodes - A trib
TTITLE6=ute to Johnny'Clyde'Copeland - Good day to sing and play the b
TTITLE6=lue
TTITLE7=Coco Montoya - It takes time
TTITLE8=LeeMcBee-MikeMorgan&TheCrawl feat LeeMcBee - Call me
TTITLE9=Willie King and The Liberators - Writing in the sky(Katrina)
TTITLE10=Jumpin' Johnny Sansone - Just say Yes
TTITLE11=Billy Branch and The Sons of Blues - Where's my money
TTITLE12=BluesNetwork - Rainin' in my heart
EXTD=
EXTT0=
EXTT1=
EXTT2=
EXTT3=
EXTT4=
EXTT5=
EXTT6=
EXTT7=
EXTT8=
EXTT9=
EXTT10=
EXTT11=
EXTT12=
PLAYORDER=
